<?xml version="1.0" encoding="UTF-8" standalone="no"?>
<!-- Created with Inkscape (http://www.inkscape.org/) -->

<svg
   xmlns:dc="http://purl.org/dc/elements/1.1/"
   xmlns:cc="http://creativecommons.org/ns#"
   xmlns:rdf="http://www.w3.org/1999/02/22-rdf-syntax-ns#"
   xmlns:svg="http://www.w3.org/2000/svg"
   xmlns="http://www.w3.org/2000/svg"
   xmlns:xlink="http://www.w3.org/1999/xlink"
   xmlns:sodipodi="http://sodipodi.sourceforge.net/DTD/sodipodi-0.dtd"
   xmlns:inkscape="http://www.inkscape.org/namespaces/inkscape"
   width="500"
   height="500"
   id="svg2"
   inkscape:label="Pozadí"
   version="1.1"
   inkscape:version="0.48.2 r9819"
   sodipodi:docname="Nový dokument 1">
  <defs
     id="defs3">
    <linearGradient
       inkscape:collect="always"
       id="linearGradient5270">
      <stop
         style="stop-color:#04a0bb;stop-opacity:1;"
         offset="0"
         id="stop5272" />
      <stop
         style="stop-color:#04a0bb;stop-opacity:0;"
         offset="1"
         id="stop5274" />
    </linearGradient>
    <linearGradient
       id="linearGradient5198">
      <stop
         style="stop-color:#0464bb;stop-opacity:1;"
         offset="0"
         id="stop5200" />
      <stop
         style="stop-color:#04a0bb;stop-opacity:0;"
         offset="1"
         id="stop5202" />
    </linearGradient>
    <linearGradient
       inkscape:collect="always"
       xlink:href="#linearGradient5270"
       id="linearGradient5276"
       x1="240.26306"
       y1="124.16377"
       x2="509.90012"
       y2="287.29144"
       gradientUnits="userSpaceOnUse"
       gradientTransform="translate(1.6874976,630.36218)" />
    <linearGradient
       inkscape:collect="always"
       xlink:href="#linearGradient5198"
       id="linearGradient5284"
       x1="229.77661"
       y1="619.88043"
       x2="281.17227"
       y2="910.6347"
       gradientUnits="userSpaceOnUse" />
  </defs>
  <sodipodi:namedview
     id="base"
     pagecolor="#ffffff"
     bordercolor="#666666"
     borderopacity="1.0"
     inkscape:pageopacity="0.0"
     inkscape:pageshadow="2"
     inkscape:zoom="0.36415999"
     inkscape:cx="452.92582"
     inkscape:cy="448.55973"
     inkscape:document-units="px"
     inkscape:current-layer="layer1"
     showgrid="false"
     inkscape:window-width="1280"
     inkscape:window-height="737"
     inkscape:window-x="-4"
     inkscape:window-y="-4"
     inkscape:window-maximized="1" />
  <metadata
     id="metadata6">
    <rdf:RDF>
      <cc:Work
         rdf:about="">
        <dc:format>image/svg+xml</dc:format>
        <dc:type
           rdf:resource="http://purl.org/dc/dcmitype/StillImage" />
        <dc:title></dc:title>
      </cc:Work>
    </rdf:RDF>
  </metadata>
  <g
     inkscape:label="Vrstva 1"
     inkscape:groupmode="layer"
     id="layer1"
     transform="translate(0,-552.36218)">
    <path
       style="fill:url(#linearGradient5284);fill-opacity:1;stroke:url(#linearGradient5276);stroke-width:3;stroke-linecap:butt;stroke-linejoin:round;stroke-miterlimit:4;stroke-opacity:1;stroke-dasharray:none"
       d="m 232.25,663.95593 c -32.37289,0 -60.85387,14.24769 -77.375,35.8125 -40.60291,2.12703 -73.927895,20.40087 -83.687502,44.59375 -19.329852,12.07951 -32.125001,32.94334 -32.125001,56.6875 0,37.37875 31.666321,67.6875 70.718753,67.6875 4.11859,0 8.13686,-0.35319 12.0625,-1 6.94959,11.83681 21.8052,21.24004 40.53125,25.71875 11.96943,27.4388 46.84749,47.3125 88.03125,47.3125 44.1931,0 82.16928,-19.84426 91.32265,-50.40704 66.43978,-0.22201 119.2086,-50.67425 119.2086,-109.15546 0,-58.61858 -54.03227,-106.15625 -120.6875,-106.15625 -16.76041,0 -32.71266,3.0075 -47.21875,8.4375 C 276.77402,671.32723 255.5333,663.95593 232.25,663.95593 z"
       id="path2984"
       inkscape:connector-curvature="0"
       sodipodi:nodetypes="sccssccscsscs" />
    <path
       sodipodi:nodetypes="sccssccscsscs"
       inkscape:connector-curvature="0"
       id="path5286"
       d="m 232.25,663.95593 c -32.37289,0 -60.85387,14.24769 -77.375,35.8125 -40.60291,2.12703 -73.927895,20.40087 -83.687502,44.59375 -19.329852,12.07951 -32.125001,32.94334 -32.125001,56.6875 0,37.37875 31.666321,67.6875 70.718753,67.6875 4.11859,0 8.13686,-0.35319 12.0625,-1 6.94959,11.83681 21.8052,21.24004 40.53125,25.71875 11.96943,27.4388 46.84749,47.3125 88.03125,47.3125 44.1931,0 82.16928,-19.84426 91.32265,-50.40704 66.43978,-0.22201 119.2086,-50.67425 119.2086,-109.15546 0,-58.61858 -54.03227,-106.15625 -120.6875,-106.15625 -16.76041,0 -32.71266,3.0075 -47.21875,8.4375 C 276.77402,671.32723 255.5333,663.95593 232.25,663.95593 z"
       style="fill:url(#linearGradient5284);fill-opacity:1;stroke:url(#linearGradient5276);stroke-width:3;stroke-linecap:butt;stroke-linejoin:round;stroke-miterlimit:4;stroke-opacity:1;stroke-dasharray:none" />
  </g>
</svg>
